<mxfile modified="2021-11-22T02:09:40.255Z" host="app.diagrams.net" agent="5.0 (Macintosh; Intel Mac OS X 10_15_7) AppleWebKit/537.36 (KHTML, like Gecko) Chrome/95.0.4638.69 Safari/537.36" etag="lL-Rn7HjloJVsEToSzAS" version="15.7.1" type="github">
  <diagram id="Ht1M8jgEwFfnCIfOTk4-" name="Page-1">
    <mxGraphModel dx="786" dy="1129" grid="1" gridSize="10" guides="1" tooltips="1" connect="1" arrows="1" fold="1" page="1" pageScale="1" pageWidth="827" pageHeight="1169" math="0" shadow="0">
      <root>
        <mxCell id="0" />
        <mxCell id="1" parent="0" />
        <mxCell id="N6vxyuBvr8YppWgNzd5H-1" value="SaaS服务后台&lt;br&gt;（腾讯云）" style="rounded=0;whiteSpace=wrap;html=1;" vertex="1" parent="1">
          <mxGeometry x="420" y="250" width="120" height="60" as="geometry" />
        </mxCell>
        <mxCell id="N6vxyuBvr8YppWgNzd5H-3" style="edgeStyle=orthogonalEdgeStyle;rounded=0;orthogonalLoop=1;jettySize=auto;html=1;entryX=0;entryY=0.5;entryDx=0;entryDy=0;" edge="1" parent="1" source="N6vxyuBvr8YppWgNzd5H-2" target="N6vxyuBvr8YppWgNzd5H-1">
          <mxGeometry relative="1" as="geometry" />
        </mxCell>
        <mxCell id="N6vxyuBvr8YppWgNzd5H-4" value="Text" style="edgeLabel;html=1;align=center;verticalAlign=middle;resizable=0;points=[];" vertex="1" connectable="0" parent="N6vxyuBvr8YppWgNzd5H-3">
          <mxGeometry x="0.0737" relative="1" as="geometry">
            <mxPoint x="-12" as="offset" />
          </mxGeometry>
        </mxCell>
        <mxCell id="N6vxyuBvr8YppWgNzd5H-2" value="终端SDK&lt;br&gt;（包含界面及基本的云游操作逻辑）" style="rounded=0;whiteSpace=wrap;html=1;" vertex="1" parent="1">
          <mxGeometry x="110" y="250" width="120" height="60" as="geometry" />
        </mxCell>
        <mxCell id="N6vxyuBvr8YppWgNzd5H-5" value="" style="rounded=0;whiteSpace=wrap;html=1;dashed=1;fillColor=none;" vertex="1" parent="1">
          <mxGeometry x="75" y="150" width="190" height="260" as="geometry" />
        </mxCell>
        <mxCell id="N6vxyuBvr8YppWgNzd5H-6" value="Text" style="edgeLabel;html=1;align=center;verticalAlign=middle;resizable=0;points=[];" vertex="1" connectable="0" parent="1">
          <mxGeometry x="160" y="140" as="geometry">
            <mxPoint x="-65" y="23" as="offset" />
          </mxGeometry>
        </mxCell>
      </root>
    </mxGraphModel>
  </diagram>
</mxfile>
